<mxfile host="app.diagrams.net" modified="2023-09-09T16:09:43.366Z" agent="Mozilla/5.0 (Macintosh; Intel Mac OS X 10_15_7) AppleWebKit/605.1.15 (KHTML, like Gecko) Version/16.6 Safari/605.1.15" version="21.7.4" etag="rjbhzQ0YnIfR3N5r0xvA" type="github">
  <diagram name="Page-1" id="sTaCUi-8Z826dl4loupX">
    <mxGraphModel>
      <root>
        <mxCell id="0" />
        <mxCell id="1" parent="0" />
      </root>
    </mxGraphModel>
  </diagram>
</mxfile>
